<svg xmlns="http://www.w3.org/2000/svg" xmlns:xlink="http://www.w3.org/1999/xlink" version="1.1" preserveAspectRatio="none" 
    viewBox="137.9839765435 -154.52109045081005 1142.72110966934 857" width="1142.72110966934" height="857">
      <path transform="translate(137.9839765435, -154.52109045081005)" fill="#000000" d="M270.31258416130004,384.95064858411007L267.8768345839493,380.89112840548273L265.2511111529313,376.98898301687257L262.44328260774773,373.2487088408499L259.46121768790005,369.674802299985L256.31278513288987,366.2717598168483L253.00585368221874,363.04407781401005L249.5482920753883,359.9962527140405L245.9479690519,357.13278093951004L246.21175917611254,356.2095155047726L246.331663778,355.21430730891007L246.2273093041445,354.197179052957L245.92848455405624,353.24637302994756L244.83285625405,351.62915971161004L243.21564293571876,350.53353141159755L242.26483691272423,350.23470666149444L241.2477086568,350.1303521876101L240.26149330602186,350.23376990676314L239.32923502612502,350.5260373739351L237.6985324401,351.56920741061003L232.5347658181869,348.7832989254649L227.19788692726405,346.3323739219241L221.70363324633104,344.2276734564169L216.0677422543875,342.48043858537255L210.305951430433,341.1019103652204L204.43399825346717,340.1033298523897L198.46762020248963,339.49593810330987L192.4225547565,339.29097617441005L184.66603846913324,339.6237114447286L177.0972478241344,340.603931565396L169.74203725129337,342.20465800097975L162.6262611804,344.3989122160475L155.77577404124412,347.1597156751668L149.21643026361562,350.4600898429053L142.9740842773043,354.2730561838306L137.0745905121,358.57163616251006L135.51583068721249,357.87618947141004L133.81318534000002,357.61239934721004L132.58547462692934,357.7384865301643L131.43757541451566,358.09951179250066L130.39534213254416,358.6696207044292L129.4846292108,359.42295883616003L128.73129107906837,360.3336717579034L128.16118216713437,361.3759050398694L127.8001569047832,362.5238042522682L127.67406972180001,363.75151496531004L127.86591708487501,365.17837972811003L128.3455354926,366.53330172971005L124.14906177646836,371.1796050539874L120.27745459115312,376.1136794228538L116.74982373258632,381.31753914602336L113.5852789967,386.77319853321006L110.80293017942617,392.462671894128L108.42188707669688,398.3679735384913L106.46125948444416,404.47111777601395L104.9401571986,410.75411891641005L100.9113625742,422.74457910801004L80,428.21222895541007L100.9113625742,433.67987880281004L104.652386154,444.90294954211004L106.11484759548965,451.39728254338564L108.04268877316719,457.70276579664596L110.415675785458,463.80141361160395L113.2135747307875,469.67524029797255L116.41615170758105,475.30626016546455L120.00317281426406,480.67648752379284L123.95440414926192,485.7679366826704L128.249611811,490.56262195181006L127.76999340336249,491.88157257288503L127.5781460403,493.34440871621007L127.70423322325429,494.5721194292805L128.06525848559062,495.72001864169283L128.63536739751913,496.76225192366064L129.38870552925,497.6729648453976L130.29941845099336,498.4263029771173L131.34165173295935,498.9964118890335L132.4895509453582,499.3574371513599L133.7172616584,499.48352433431006L135.455878386175,499.21973421011006L136.9786668305,498.52428751901004L142.87816059570451,502.8228674976895L149.12050658201719,506.63583383861476L155.67985035964944,509.93620800635324L162.53033749881251,512.6970114654725L169.64611356971778,514.8912656805403L177.00132414257655,516.491992116124L184.57011478760018,517.4722122367914L192.326631075,517.80494750711L198.30462488428282,517.6078543177124L204.2151723549875,517.0195723645663L210.04478421939842,516.044598070242L215.7799712098,514.68742785731L221.40724405847655,512.9525581483405L226.91311349771246,510.8444853659038L232.28409025979215,508.3677059325702L237.506685077,505.5267162709101L239.14937812326247,506.65381952889754L240.11011374613906,506.9565786487335L241.1517849753,507.0614951754101L242.16891323125293,506.9571407015546L243.11971925426093,506.6583159514663L244.73693257258748,505.5626876514601L245.8325608725703,503.94547433312886L246.13138562264862,502.99466831013433L246.2357400965,501.97754005421007L246.13138562264453,500.960411798257L245.83256087255626,500.00960577524756L244.73693257255,498.39239245691004L243.11971925421872,497.29676415689755L242.1689132312242,496.99793940679444L241.1517849753,496.8935849329101L240.13465671934688,496.9979394067657L239.1838506963375,497.2967641568554L237.566637378,498.3923924568726L236.4710090779875,500.0096057752335L236.17218432788437,500.96041179825284L236.067829854,501.97754005421007L236.2596772171,503.51231895871007L231.1811552731244,506.25419997284996L225.95537548992655,508.64873234331014L220.5969512408623,510.6902955418765L215.1204958992875,512.3732690403351L209.54062283855802,513.6920323104719L203.8719454320297,514.6409648240726L198.1290770530584,515.2144460529234L192.32663107500002,515.4068554688101L184.8174180290752,515.0874221152665L177.4869377803766,514.1463583411617L170.3610447586928,512.6095185762841L163.46559339381253,510.5027572504226L156.8264381155244,507.8519287933658L150.4694333536172,504.6828876349023L144.4204335378795,501.0214882048208L138.70529309810001,496.8935849329101L139.5326348513125,495.2628823468476L139.8563772765,493.34440871621007L139.7302900935457,492.1166980031396L139.36926483120936,490.9687987907273L138.79915591928085,489.9265655087595L138.04581778755002,489.01585258702255L137.13510486580665,488.26251445530283L136.09287158384063,487.69240554338666L134.9449723714418,487.33138028106026L133.7172616584,487.2052930981101L132.58865959287812,487.3102096247866L131.52300744334997,487.61296874462255L130.54728374524686,488.09558476732724L129.688467034,488.7400720026101L126.07072037306642,484.7444384946835L122.70702158743751,480.5341008089601L119.6086117335461,476.1191758962242L116.78673186782501,471.5097807072601L114.25262304670704,466.7160321928523L112.01752632662502,461.7480473037851L110.09268276401173,456.6159429908429L108.48933341530001,451.3298362048101L111.75073858740001,433.7758024843101L132.56617748000002,428.4040763185101L132.56617748000002,428.69184736311007L132.81891389872737,434.20539819090754L133.56288448343128,439.580684024621L134.77673122689458,444.7963468570321L136.4390961219,449.8310286809226L138.52862116123043,454.66337148907394L141.02394833766874,459.2720172742679L143.90371964399765,463.635608029286L147.146577073,467.73278574691005L146.583025443975,468.95581268648505L146.3791876208,470.32272514831004L146.479420373966,471.3357316835735L146.76737876950938,472.2756713520366L147.83003330399998,473.85991090484754L149.41427285681561,474.9225654393148L150.35421252526524,475.2105238348482L151.3672190605,475.31075658801007L152.7820933631125,475.1069187647601L154.0530821434,474.54336713581006L157.881223910516,477.4898353769495L161.94430375700938,480.12942277756315L166.22546009823554,482.443019541719L170.70783134955,484.4115158734851L175.37455592630818,486.0158019769292L180.2087722438656,487.23676805611944L185.19361871757775,488.05530431512375L190.3122337628,488.45230095801L190.80833905324374,489.3935520830663L191.54725116254997,490.15494630523506L192.48400586500622,490.66454086339127L193.57363893489998,490.85039299641005L194.67676127252025,490.66304205591L195.63599808786245,490.14295584508505L196.37940661977342,489.35308427994755L196.83504410709998,488.35637727651005L201.83131898818866,487.78683041741704L206.7331689952656,486.8036126817101L211.51811201547224,485.4157169145343L216.16366593595,483.63213596103503L220.64734864384025,481.46186266635766L224.9466780262844,478.91388987564756L229.03917197042384,475.99721043404986L232.9023483634,472.72081718671006L233.274052629375,471.90546589366L232.998272045,471.09011460061004L232.18292075195,470.71841033464756L231.3675694589,470.99419091911L227.65670938053495,474.13569148930316L223.73114512436717,476.93546394403654L219.6099864863252,479.3845154381661L215.3123432623375,481.4738531265475L210.85732524833261,483.1944841640368L206.26404224023906,484.5374157054897L201.55160403398537,485.4936549057622L196.7391204255,486.05420891971005L196.2040461394469,485.2133778987835L195.480122105375,484.57938231614753L194.5943268587156,484.17920070724284L193.57363893489998,484.03981160751005L192.539461743375,484.1956875900022L191.631184383875,484.6393346170975L190.9027639272625,485.3347813082241L190.4081574444,486.24605628281006L185.53665828967928,485.8621742057296L180.78881075568435,485.0814828366913L176.18035232141597,483.92084376033733L171.72702046587497,482.39711856131L167.4445526680621,480.52716882425136L163.34868640697812,478.3278561338038L159.45515916162384,475.81604207460924L155.779708411,473.00858823131L156.2952981992375,471.7975517519225L156.45117418169997,470.51457251141005L156.35094142853396,469.5015659761466L156.0629830329906,468.56162630768347L155.00032849849998,466.97738675487255L153.41608894568435,465.9147322204053L152.47614927723475,465.6267738248719L151.463142742,465.52654107171L150.096230280175,465.73037889496L148.87320334059999,466.29393052391003L145.8010226183707,462.3811061316823L143.07281822289687,458.2108615472256L140.70882405574963,453.8045547777549L138.7292740185,449.183543830485L137.15440201271912,444.3691867126307L136.0044419399781,439.3828414314069L135.299627701848,434.2458659940284L135.06019319989997,428.97961840771006L135.30356207160116,423.6858302331155L136.0179312077031,418.53592758082254L137.17969438970349,413.54789614111706L138.76524539909997,408.739721604285L140.75097801739022,404.12938966061233L143.11328602607188,399.734886000385L145.82856320664257,395.57419631388893L148.87320334059999,391.66530629141005L150.09623028017498,392.228857920435L151.463142742,392.43269574361005L152.47614927726346,392.332462990444L153.41608894572656,392.0445045949007L155.0003284985375,390.98185006041007L156.06298303300468,389.39761050759444L156.35094142853808,388.45767083914484L156.45117418169997,387.44466430391003L156.25932681863748,386.089742302285L155.779708411,384.95064858411L159.45515916162384,382.1431947408065L163.34868640697812,379.63138068160066L167.4445526680621,377.43206799113705L171.72702046587497,375.56211825406L176.18035232141597,374.0383930550143L180.78881075568435,372.87775397864436L185.53665828967928,372.0970626095948L190.4081574444,371.71318053251L190.90426273484374,372.58398770392097L191.64317484415,373.28393081762255L192.57992954660625,373.75005995759284L193.6695626165,373.91942520781004L194.70373980802657,373.76504803284286L195.6120171675375,373.3318926584225L196.34043762417966,372.6649233102709L196.83504410709998,371.80910421411L201.6475277155564,372.36965822805786L206.3599659217953,373.32589742833034L210.9532489298834,374.66882896978325L215.4082669438875,376.38946000727253L219.7059101678744,378.47879769565395L223.82706880591093,380.9278491897835L227.75263306206384,383.7276216445169L231.46349314039998,386.86912221471005L231.86667236435466,387.1239194937928L232.3148158140125,387.1808741796975L233.09419572649998,386.77319853321L233.34899300558277,386.3700193092553L233.40594769148748,385.9218758595975L232.99827204499996,385.14249594711004L229.1349083010791,381.86591534880085L225.0411029003453,378.94792445060534L220.73821385001696,376.39639199202156L216.2475991573125,374.2191867125475L211.59061682945017,372.42417735168135L206.78862487364842,371.01923264892093L201.86298129712554,370.0122213437645L196.83504410709998,369.41101217571L196.33893881665466,368.41430517227406L195.60002670733746,367.6244336071475L194.66327200485154,367.10434739635224L193.57363893489998,366.91699645591L192.48400586499216,367.08786051363654L191.54725116251248,367.5644813062475L190.80833905320156,368.2929017628897L190.31223376279996,369.21916481271L185.22115930582086,369.61222708587604L180.2492400469984,370.42120844693187L175.41670988790483,371.63037141687676L170.74380273011246,373.22397851671L166.2507524751935,375.1862922674307L161.95779302472027,377.5015751900381L157.88515828026505,380.1540898055315L154.0530821434,383.12809863491003L152.78209336307498,382.564547005885L151.36721906049996,382.36070918271L150.3542125252365,382.460941935876L149.4142728567734,382.74890033141935L147.83003330396247,383.81155486591L146.76737876949528,385.39579441872564L146.4794203739619,386.3357340871753L146.3791876208,387.34874062241L146.58302544405,388.71565308423504L147.146577073,389.93868002381004L143.96685691095547,393.84157481617115L141.1333612869375,398.0502263434179L138.66857231380703,402.53765607012L136.59497210442498,407.27688546084755L134.93504277165232,412.24093598017043L133.71126642835,417.40282909265846L132.94612518737893,422.7355862628818L132.6621011616,428.21222895541007L111.8466622689,422.74457910801004L108.6811807783,405.57424011361L110.28453012704063,400.3239173571995L112.20937368966875,395.22647296823817L114.44447040975625,390.29089979186904L116.978579230875,385.5261906732351L119.80045909659687,380.9413384574792L122.89886895049375,376.54533598974444L126.2625677361375,372.34717611517374L129.8803143971,368.35585167891L130.73913110834687,369.00033891419287L131.71485480644998,369.4829549368975L132.78050695597813,369.78571405673347L133.9091090215,369.89063058341003L135.1368197345705,369.76454340045575L136.2847189469828,369.4035181381194L137.32695222895057,368.8334092261909L138.2376651506875,368.08007109446004L138.99100328240723,367.16935817271667L139.56111219432344,366.1271248907507L139.9221374566498,364.9792256783519L140.0482246396,363.75151496531004L139.7604535950125,361.8690127151975L138.8971404612,360.20233874861003L144.58061859201388,356.07443547669936L150.6058248382922,352.4130360466179L156.94578066460255,349.24399488815436L163.5735075355125,346.59316643109753L170.46202691558963,344.48640510523603L177.58436026940154,342.9495653403585L184.91352906151582,342.0085015662536L192.4225547565,341.68906821271L198.29188502029592,341.8895337190393L204.0892725229422,342.4834362004069L209.79673157415178,343.45953460038226L215.3962764836375,344.806587862535L220.86992156111233,346.5133549304346L226.19968111628907,348.56859474765065L231.36756945888067,350.9610662577527L236.35560089860002,353.6795284043101L236.06782985400002,355.31023099041005L236.1721843278557,356.327359246363L236.47100907794533,357.278165269371L237.5666373779625,358.89537858769756L239.18385069632347,359.9910068876804L240.1346567193428,360.28983163775865L241.15178497530002,360.39418611161005L242.97433492442502,360.05845322623503L244.5091138289,359.14717825171005L248.00583178229317,361.93439819344815L251.3676570585266,364.8981027211272L254.58559681245606,368.0349195178196L257.65065819893755,371.3414762665975L260.5538483728268,374.81440065053323L263.28617448897967,378.4503203526991L265.83864370225217,382.24586305616725L268.2022631675,386.19765644401L268.497528249725,386.5558714422397L268.909700318825,386.76120807302254L269.8329657536,386.67727485161004L270.396517382625,385.84993309846004ZM247.16308532755,482.00671758418L250.09308532755,482.00671758418L249.73308532755,484.48671758418004L253.50308532755,484.48671758418004L253.26308532755,486.08671758418L249.51308532755,486.08671758418L249.16308532755,488.55671758418003L253.86308532755,488.55671758418003L253.64308532755,490.12671758418L240.45308532755,490.12671758418L240.67308532754998,488.55671758418003L242.02308532755,488.55671758418003L242.65308532755,484.17671758418004L245.40308532755,484.17671758418004L244.77308532755,488.55671758418003L246.24308532755,488.55671758418003ZM244.82308532755,478.60671758418005L251.83308532755,478.60671758418005L254.92308532754998,483.47671758418005L251.48308532755,483.47671758418005L249.38308532755,480.18671758418003L247.74308532755,480.18671758418003L244.73308532755,483.47671758418005L241.16308532755,483.47671758418005L245.20308532755,479.06671758418ZM255.55068532755,488.60671758418005L258.69068532755,488.60671758418005L259.98068532755,479.49671758418003L259.43068532755,478.86671758418004L263.20068532755,478.86671758418004L261.83068532755,488.60671758418005L263.09068532755,488.60671758418005L264.37068532755,479.49671758418003L263.83068532755,478.86671758418004L267.60068532754997,478.86671758418004L266.23068532755,488.60671758418005L269.37068532755,488.60671758418005L269.15068532755,490.17671758418004L255.33068532755,490.17671758418004ZM269.00068532755,486.71671758418006L266.80068532755,486.71671758418006L268.28068532755,480.75671758418L270.47068532755,480.75671758418ZM258.64068532755,486.71671758418006L256.44068532755,486.71671758418006L256.66068532755,480.75671758418L258.85068532754997,480.75671758418ZM285.39828532755,480.42671758418004L279.53828532755,480.42671758418004L278.37828532755,488.63671758418L284.48828532755,488.63671758418L284.27828532755,490.22671758418005L275.82828532755,490.22671758418005L277.41828532755,478.88671758418L285.61828532755,478.88671758418ZM271.99828532755,490.45671758418L273.19828532755,481.85671758418005L271.72828532755,481.85671758418005L271.94828532755,480.28671758418005L273.41828532755,480.28671758418005L273.59828532755,479.06671758418L273.23828532755,478.58671758418L275.86828532755,478.58671758418L275.61828532755,480.28671758418005L276.86828532755,480.28671758418005L276.65828532755,481.85671758418005L275.39828532755,481.85671758418005L274.17828532755,490.45671758418ZM279.53828532755,483.64671758418L281.08828532755,483.64671758418L281.24828532755,482.45671758418L279.62828532755,482.45671758418L279.84828532755,480.91671758418005L285.06828532755003,480.91671758418005L284.85828532755,482.45671758418L283.51828532755,482.45671758418L283.34828532755,483.64671758418L284.67828532755,483.64671758418L284.43828532755,485.21671758418006L283.13828532755,485.21671758418006L282.93828532755,486.60671758418005L284.40828532755,486.60671758418005L284.19828532755,488.17671758418004L278.85828532755,488.17671758418004L279.06828532755003,486.60671758418005L280.67828532755,486.60671758418005L280.86828532755,485.21671758418006L279.29828532755,485.21671758418006ZM271.61828532755,489.85671758418005L270.58828532755,489.85671758418005L271.89828532755,482.48671758418004L272.90828532755,482.48671758418004ZM275.91828532755,488.91671758418005L274.88828532755,488.91671758418005L275.51828532755,482.48671758418004L276.53828532755,482.48671758418004ZM291.96588532755,484.50671758418L295.10588532755,484.50671758418L295.00588532755,485.19671758418L300.01588532755,485.19671758418L299.81588532755,486.63671758418L297.12588532755,486.63671758418L299.63588532755,490.22671758418005L296.50588532755,490.22671758418005L294.70588532755,487.31671758418L294.27588532755,490.42671758418004L291.13588532755,490.42671758418004L291.56588532755,487.28671758418005L288.95588532755,490.22671758418005L285.81588532755,490.22671758418005L289.41588532755,486.63671758418L286.64588532755,486.63671758418L286.83588532755,485.19671758418L291.86588532755,485.19671758418ZM294.95588532755,479.01671758418L300.80588532755,479.01671758418L300.06588532755,484.27671758418L294.21588532755,484.27671758418ZM286.69588532755,484.20671758418L288.31588532755,480.84671758418006L287.13588532755,480.84671758418006L287.33588532755,479.39671758418L289.00588532755,479.39671758418L289.13588532755,479.13671758418L288.64588532755,478.56671758418L291.89588532755,478.56671758418L291.51588532755,479.39671758418L294.31588532755,479.39671758418L293.79588532754997,483.08671758418L293.36588532755,483.88671758418L292.52588532755,484.20671758418L290.29588532754997,484.20671758418L291.41588532755,482.66671758418005L291.66588532755,480.84671758418006L290.83588532755,480.84671758418006L289.28588532755,484.20671758418ZM297.00588532755,482.84671758418006L297.88588532755,482.84671758418006L298.21588532755,480.48671758418004L297.33588532755,480.48671758418004ZM205.23110966934001,397.71302704016L204.52110966934,404.43302704016L175.44110966934,404.43302704016L173.37110966934,424.08302704016L199.09110966934,424.08302704016L198.37110966934,430.80302704016003L172.65110966934,430.80302704016003L170.44110966934,452.23302704016004L200.37110966934,452.23302704016004L197.94110966934,458.88302704016L162.72110966934002,458.88302704016L165.65110966934,430.80302704016003L166.36110966934,424.08302704016L168.44110966934,404.43302704016L169.15110966934,397.71302704016ZM247.24375966934,447.16302704016005L252.46375966934,397.71302704016L259.46375966934,397.71302704016L253.03375966934001,458.88302704016L245.03375966934001,458.88302704016L222.02375966934,407.65302704016005L216.66375966934,458.88302704016L209.66375966934,458.88302704016L216.02375966934,397.71302704016L225.02375966934,397.71302704016ZM260.46020966934,397.71302704016L303.55020966934,397.71302704016L302.83020966934,404.43302704016L284.76020966934004,404.43302704016L279.04020966934,458.88302704016L272.04020966934,458.88302704016L277.76020966934004,404.43302704016L259.75020966934,404.43302704016ZM346.48775966934,397.71302704016L345.77775966934,404.43302704016L316.69775966934003,404.43302704016L314.62775966934,424.08302704016L340.34775966934,424.08302704016L339.62775966934,430.80302704016003L313.90775966934,430.80302704016003L311.69775966934003,452.23302704016004L341.62775966934,452.23302704016004L339.19775966934003,458.88302704016L303.97775966934,458.88302704016L306.90775966934,430.80302704016003L307.61775966934,424.08302704016L309.69775966934003,404.43302704016L310.40775966934,397.71302704016ZM357.35040966934,397.71302704016L394.29040966933997,397.71302704016L391.15040966934,427.79302704016004L390.43040966933995,434.44302704016L382.72040966934003,434.44302704016L389.29040966933997,458.88302704016L382.29040966933997,458.88302704016L375.71040966934004,434.44302704016L360.49040966934,434.44302704016L357.92040966933996,458.88302704016L350.92040966933996,458.88302704016L356.64040966934,404.43302704016ZM363.64040966934,404.43302704016L361.21040966934004,427.79302704016004L384.14040966934,427.79302704016004L386.57040966934005,404.43302704016ZM404.22160966933995,397.71302704016L441.23160966934006,397.71302704016L437.59160966933996,432.08302704016L436.87160966934005,438.73302704016004L406.94160966934,438.73302704016004L404.79160966934,458.88302704016L397.79160966934,458.88302704016L403.51160966934003,404.43302704016ZM410.51160966934003,404.43302704016L407.58160966933997,432.08302704016L430.59160966933996,432.08302704016L433.52160966934,404.43302704016ZM452.73615966934005,397.71302704016L489.67615966934,397.71302704016L486.53615966934,427.79302704016004L485.81615966934,434.44302704016L478.10615966934006,434.44302704016L484.67615966934,458.88302704016L477.67615966934,458.88302704016L471.09615966933995,434.44302704016L455.87615966934004,434.44302704016L453.30615966934,458.88302704016L446.30615966934,458.88302704016L452.02615966934,404.43302704016ZM459.02615966934,404.43302704016L456.59615966933995,427.79302704016004L479.52615966934,427.79302704016004L481.95615966933997,404.43302704016ZM499.60735966934,397.71302704016L493.17735966934003,458.88302704016L500.17735966934003,458.88302704016L506.60735966934,397.71302704016ZM554.62725966934,397.71302704016L553.90725966934,404.43302704016L523.89725966934,404.43302704016L521.89725966934,423.72302704016005L551.90725966934,423.72302704016005L548.90725966934,452.23302704016004L548.19725966934,458.88302704016L512.96725966934,458.88302704016L511.89725966934,452.23302704016004L541.90725966934,452.23302704016004L544.19725966934,430.44302704016L514.18725966934,430.44302704016L517.61725966934,397.71302704016ZM600.34960966934,397.71302704016L599.63960966934,404.43302704016L570.55960966934,404.43302704016L568.48960966934,424.08302704016L594.20960966934,424.08302704016L593.48960966934,430.80302704016003L567.76960966934,430.80302704016003L565.55960966934,452.23302704016004L595.48960966934,452.23302704016004L593.05960966934,458.88302704016L557.83960966934,458.88302704016L560.76960966934,430.80302704016003L561.47960966934,424.08302704016L563.55960966934,404.43302704016L564.26960966934,397.71302704016ZM647.2922596693401,397.71302704016L644.86225966934,404.43302704016L617.50225966934,404.43302704016L615.43225966934,424.08302704016L641.1522596693401,424.08302704016L640.43225966934,430.80302704016003L614.71225966934,430.80302704016003L611.7822596693401,458.88302704016L604.7822596693401,458.88302704016L608.2822596693401,425.65302704016005L608.4222596693401,424.08302704016L610.50225966934,404.43302704016L611.21225966934,397.71302704016ZM657.7976596693401,397.71302704016L694.73765966934,397.71302704016L691.59765966934,427.79302704016004L690.87765966934,434.44302704016L683.1676596693401,434.44302704016L689.73765966934,458.88302704016L682.73765966934,458.88302704016L676.1576596693401,434.44302704016L660.9376596693401,434.44302704016L658.36765966934,458.88302704016L651.36765966934,458.88302704016L657.08765966934,404.43302704016ZM664.08765966934,404.43302704016L661.6576596693401,427.79302704016004L684.58765966934,427.79302704016004L687.01765966934,404.43302704016ZM745.53885966934,458.88302704016L738.53885966934,458.88302704016L735.53885966934,443.66302704016005L711.4588596693401,443.66302704016005L705.2388596693401,458.88302704016L698.2388596693401,458.88302704016L723.17885966934,397.71302704016L733.4588596693401,397.71302704016ZM727.67885966934,403.86302704016003L714.16885966934,436.94302704016L734.17885966934,436.94302704016ZM751.25475966934,458.88302704016L758.25475966934,458.88302704016L763.04475966934,413.93302704016L771.18475966934,447.87302704016L775.58225966934,447.82052704016L780.19475966934,447.80302704016003L795.41475966934,413.93302704016L790.69475966934,458.88302704016L797.69475966934,458.88302704016L804.12475966934,397.71302704016L795.76475966934,397.71302704016L776.4747596693401,440.73302704016004L766.04475966934,397.71302704016L757.68475966934,397.71302704016ZM850.2102596693401,397.71302704016L849.50025966934,404.43302704016L820.42025966934,404.43302704016L818.3502596693401,424.08302704016L844.0702596693401,424.08302704016L843.3502596693401,430.80302704016003L817.63025966934,430.80302704016003L815.42025966934,452.23302704016004L845.3502596693401,452.23302704016004L842.92025966934,458.88302704016L807.7002596693401,458.88302704016L810.63025966934,430.80302704016003L811.3402596693401,424.08302704016L813.42025966934,404.43302704016L814.13025966934,397.71302704016ZM899.3729096693401,446.44302704016L916.2329096693401,397.71302704016L923.2329096693401,397.71302704016L902.08290966934,458.88302704016L894.15290966934,458.88302704016L887.51290966934,412.29302704016004L871.7229096693401,458.88302704016L863.79290966934,458.88302704016L854.64290966934,397.71302704016L861.64290966934,397.71302704016L868.93290966934,446.44302704016L885.43290966934,397.71302704016L892.44290966934,397.71302704016ZM927.87865966934,397.71302704016L964.8886596693401,397.71302704016L958.45865966934,458.88302704016L921.44865966934,458.88302704016L927.1686596693401,404.43302704016ZM934.1686596693401,404.43302704016L929.1686596693401,452.23302704016004L952.1686596693401,452.23302704016004L957.17865966934,404.43302704016ZM974.82130966934,397.71302704016L1011.76130966934,397.71302704016L1008.62130966934,427.79302704016004L1007.90130966934,434.44302704016L1000.1913096693401,434.44302704016L1006.76130966934,458.88302704016L999.76130966934,458.88302704016L993.1813096693401,434.44302704016L977.96130966934,434.44302704016L975.39130966934,458.88302704016L968.39130966934,458.88302704016L974.11130966934,404.43302704016ZM981.11130966934,404.43302704016L978.6813096693401,427.79302704016004L1001.61130966934,427.79302704016004L1004.0413096693401,404.43302704016ZM1015.26250966934,458.88302704016L1021.69250966934,397.71302704016L1028.6925096693399,397.71302704016L1022.26250966934,458.88302704016ZM1051.20250966934,397.71302704016L1059.34250966934,397.71302704016L1034.98250966934,427.72302704016005L1053.99250966934,458.88302704016L1045.91250966934,458.88302704016L1026.83250966934,427.72302704016005Z" /></svg>