<svg xmlns="http://www.w3.org/2000/svg" xmlns:xlink="http://www.w3.org/1999/xlink" version="1.1" preserveAspectRatio="none" 
    viewBox="-228.90847351534 -182.43259944530584 1262 947" width="1262" height="947">
      <path transform="translate(-228.90847351534, -182.43259944530584)" fill="#000000" d="M611.87687499999,591.9194042030358L612.26749999999,592.1706542030358L612.50187499999,592.5894042030359L612.57999999999,593.1756542030358L612.57999999999,617.5756542030358L612.6699999999901,618.2887792030358L612.93999999999,618.7981542030358L613.3899999999899,619.1037792030359L614.01999999999,619.2056542030358L614.6587499999899,619.1037792030359L615.11499999999,618.7981542030358L615.38874999999,618.2887792030358L615.47999999999,617.5756542030358L615.47999999999,593.1756542030358L615.55687499999,592.5894042030359L615.7874999999899,592.1706542030358L616.17187499999,591.9194042030358L616.70999999999,591.8356542030358L621.28999999999,591.8356542030358L621.83687499999,591.9194042030358L622.22749999999,592.1706542030358L622.46187499999,592.5894042030359L622.53999999999,593.1756542030358L622.53999999999,618.8256542030358L622.64499999999,619.1106542030358L622.95999999999,619.2056542030358L623.28499999999,619.1231542030358L623.39999999999,618.8756542030358L625.57999999999,593.8656542030358L625.7093749999901,593.2969042030359L625.96749999999,592.8906542030359L626.3543749999901,592.6469042030359L626.86999999999,592.5656542030358L629.20999999999,592.5656542030358L630.06499999999,592.8331542030357L630.34999999999,593.6356542030358L630.32999999999,593.8756542030358L628.16999999999,617.4156542030358L628.14999999999,617.7856542030358L628.24437499999,618.4025292030358L628.52749999999,618.8431542030359L628.9993749999901,619.1075292030358L629.65999999999,619.1956542030358L629.97999999999,619.1956542030358L630.4481249999901,619.2756542030359L630.78249999999,619.5156542030359L630.98312499999,619.9156542030357L631.04999999999,620.4756542030358L631.04999999999,621.2856542030358L630.97187499999,621.8369042030358L630.73749999999,622.2306542030358L630.34687499999,622.4669042030358L629.79999999999,622.5456542030358L598.22999999999,622.5456542030358L597.68312499999,622.4669042030358L597.29249999999,622.2306542030358L597.05812499999,621.8369042030358L596.97999999999,621.2856542030358L596.97999999999,620.4756542030358L597.0599999999899,619.9281542030358L597.29999999999,619.5256542030359L598.01999999999,619.1956542030358L598.19999999999,619.1956542030358L598.84312499999,619.1075292030358L599.30249999999,618.8431542030359L599.57812499999,618.4025292030358L599.66999999999,617.7856542030358L599.63999999999,617.4356542030358L597.64999999999,593.8756542030358L597.62999999999,593.6556542030359L597.87999999999,592.9156542030358L598.2674999999899,592.6531542030359L598.78999999999,592.5656542030358L601.11999999999,592.5656542030358L601.6387499999901,592.6469042030359L602.0249999999901,592.8906542030359L602.2787499999899,593.2969042030359L602.39999999999,593.8656542030358L604.43999999999,618.7556542030359L604.58499999999,619.0931542030359L604.95999999999,619.2056542030358L605.3724999999899,619.0831542030357L605.50999999999,618.7156542030358L605.50999999999,593.1756542030358L605.58687499999,592.5894042030359L605.8174999999899,592.1706542030358L606.20187499999,591.9194042030358L606.73999999999,591.8356542030358L611.32999999999,591.8356542030358ZM582.88687499999,599.3987792030358L583.27749999999,599.6481542030359L583.51187499999,600.0637792030359L583.58999999999,600.6456542030359L583.58999999999,601.8056542030358L583.68749999999,602.5581542030358L583.97999999999,603.0556542030358L584.51249999999,603.3481542030358L585.3099999999899,603.4456542030358L592.97999999999,603.4456542030358L593.52249999999,603.5225292030359L593.9099999999901,603.7531542030358L594.1424999999899,604.1375292030359L594.21999999999,604.6756542030358L594.21999999999,605.3056542030358L594.1424999999899,605.8437792030359L593.9099999999901,606.2281542030358L593.52249999999,606.4587792030359L592.97999999999,606.5356542030358L585.3099999999899,606.5356542030358L584.51249999999,606.6281542030358L583.97999999999,606.9056542030359L583.68749999999,607.4056542030357L583.58999999999,608.1656542030358L583.58999999999,617.8156542030358L583.68749999999,618.5831542030359L583.97999999999,619.0856542030358L584.51249999999,619.3631542030358L585.3099999999899,619.4556542030358L593.48999999999,619.4556542030358L594.02812499999,619.5325292030359L594.41249999999,619.7631542030358L594.64312499999,620.1475292030359L594.71999999999,620.6856542030358L594.71999999999,621.3156542030358L594.64312499999,621.8537792030359L594.41249999999,622.2381542030358L594.02812499999,622.4687792030359L593.48999999999,622.5456542030358L562.56999999999,622.5456542030358L562.02312499999,622.4687792030359L561.63249999999,622.2381542030358L561.39812499999,621.8537792030359L561.31999999999,621.3156542030358L561.31999999999,620.6856542030358L561.39749999999,620.1706542030358L561.62999999999,619.7856542030358L562.35999999999,619.4556542030358L562.63999999999,619.4556542030358L563.30937499999,619.3531542030358L563.78749999999,619.0456542030358L564.0743749999899,618.5331542030358L564.16999999999,617.8156542030358L564.16999999999,603.9356542030358L564.2474999999899,603.3494042030359L564.47999999999,602.9306542030358L564.8674999999901,602.6794042030358L565.40999999999,602.5956542030358L569.73999999999,602.5956542030358L570.28687499999,602.6794042030358L570.67749999999,602.9306542030358L570.91187499999,603.3494042030359L570.98999999999,603.9356542030358L570.98999999999,617.8156542030358L571.08499999999,618.5831542030359L571.36999999999,619.0856542030358L571.9099999999901,619.3631542030358L572.70999999999,619.4556542030358L573.82999999999,619.4556542030358L574.6299999999901,619.3631542030358L575.14999999999,619.0856542030358L575.45749999999,618.5731542030359L575.5599999999899,617.8156542030358L575.5599999999899,600.6456542030359L575.63749999999,600.0637792030359L575.8699999999899,599.6481542030359L576.2574999999899,599.3987792030358L576.79999999999,599.3156542030358L582.33999999999,599.3156542030358ZM689.78249999999,607.0856542030358L689.96999999999,607.5356542030358L690.2874999999899,608.1431542030358L691.0599999999899,608.3456542030358L701.48999999999,608.3456542030358L702.03249999999,608.4225292030358L702.4199999999901,608.6531542030358L702.6524999999899,609.0375292030358L702.72999999999,609.5756542030358L702.72999999999,610.2056542030358L702.6524999999899,610.7437792030357L702.4199999999901,611.1281542030358L702.03249999999,611.3587792030357L701.48999999999,611.4356542030358L700.32999999999,611.4356542030358L699.5974999999901,611.5381542030358L699.09999999999,611.8456542030358L698.72999999999,612.7056542030358L698.98999999999,613.6756542030358L702.71999999999,621.1956542030358L702.87999999999,621.6656542030358L702.65999999999,622.1256542030358L702.0699999999899,622.3556542030358L696.54999999999,622.3556542030358L695.9974999999899,622.3031542030358L695.61999999999,622.1456542030357L695.29499999999,621.8106542030358L694.99999999999,621.2656542030359L690.74999999999,611.6556542030359L690.3199999999899,611.4356542030358L690.0574999999901,611.5106542030358L689.96999999999,611.7356542030358L689.96999999999,621.1956542030358L689.89187499999,621.7819042030358L689.65749999999,622.2006542030358L689.26687499999,622.4519042030358L688.71999999999,622.5356542030358L683.41999999999,622.5356542030358L682.88187499999,622.4519042030358L682.4974999999899,622.2006542030358L682.26687499999,621.7819042030358L682.18999999999,621.1956542030358L682.18999999999,611.6156542030358L681.88999999999,611.4356542030358L681.60999999999,611.5456542030358L677.34999999999,621.1956542030358L677.0574999999901,621.7406542030358L676.73999999999,622.0756542030358L675.79999999999,622.3056542030358L670.03999999999,622.3056542030358L669.47999999999,622.1056542030358L669.24999999999,621.6356542030358L669.40999999999,621.1456542030357L673.25999999999,613.6856542030358L673.53999999999,612.7256542030358L673.43624999999,612.1612792030359L673.12499999999,611.7581542030358L672.60624999999,611.5162792030358L671.87999999999,611.4356542030358L670.47999999999,611.4356542030358L669.93312499999,611.3587792030357L669.54249999999,611.1281542030358L669.30812499999,610.7437792030357L669.22999999999,610.2056542030358L669.22999999999,609.5756542030358L669.30812499999,609.0375292030358L669.54249999999,608.6531542030358L669.93312499999,608.4225292030358L670.47999999999,608.3456542030358L681.07999999999,608.3456542030358L681.8674999999901,608.1431542030358L682.18999999999,607.5356542030358L682.3724999999899,607.0856542030358L682.77999999999,606.9356542030358L689.35999999999,606.9356542030358ZM644.01249999999,592.0806542030359L644.35999999999,592.8456542030358L644.72249999999,593.6781542030358L645.60999999999,594.0356542030358L646.08687499999,594.1775292030358L646.42749999999,594.4831542030357L646.63187499999,594.9525292030357L646.69999999999,595.5856542030358L646.63187499999,596.2150292030358L646.42749999999,596.6831542030358L646.08687499999,596.9900292030358L645.60999999999,597.1356542030358L644.67249999999,597.5206542030357L644.35999999999,598.3756542030358L644.35999999999,599.0456542030358L644.52999999999,599.5931542030359L645.03999999999,599.8356542030358L645.30249999999,599.9781542030357L645.38999999999,600.3256542030358L645.38999999999,602.4356542030358L645.30249999999,602.7906542030358L645.03999999999,602.9356542030358L644.52999999999,603.1731542030358L644.35999999999,603.7256542030358L644.35999999999,621.1756542030358L644.28187499999,621.7619042030358L644.04749999999,622.1806542030358L643.65687499999,622.4319042030359L643.10999999999,622.5156542030359L639.25999999999,622.5156542030359L638.72187499999,622.4319042030359L638.33749999999,622.1806542030358L638.1068749999899,621.7619042030358L638.02999999999,621.1756542030358L638.02999999999,603.7956542030358L637.82249999999,603.1506542030359L637.19999999999,602.9356542030358L636.58499999999,603.1506542030359L636.37999999999,603.7956542030358L636.37999999999,620.7756542030359L636.30812499999,621.3575292030359L636.09249999999,621.7731542030358L635.73312499999,622.0225292030359L635.22999999999,622.1056542030358L634.57999999999,622.1056542030358L634.08999999999,622.0225292030359L633.73999999999,621.7731542030358L633.52999999999,621.3575292030359L633.45999999999,620.7756542030359L633.45999999999,601.1756542030358L633.53687499999,600.5894042030359L633.7674999999899,600.1706542030358L634.15187499999,599.9194042030358L634.68999999999,599.8356542030358L636.3099999999899,599.8356542030358L637.06249999999,599.7512792030358L637.5999999999899,599.4981542030358L637.9224999999899,599.0762792030357L638.02999999999,598.4856542030358L637.9224999999899,597.8950292030358L637.5999999999899,597.4731542030357L637.06249999999,597.2200292030358L636.3099999999899,597.1356542030358L634.19999999999,597.1356542030358L633.65312499999,597.0594042030358L633.26249999999,596.8306542030357L633.02812499999,596.4494042030358L632.94999999999,595.9156542030358L632.94999999999,595.2656542030359L633.02812499999,594.7275292030358L633.26249999999,594.3431542030357L633.65312499999,594.1125292030358L634.19999999999,594.0356542030358L636.4299999999901,594.0356542030358L637.0774999999901,593.9612792030358L637.55999999999,593.738154203036L637.87749999999,593.3662792030359L638.02999999999,592.8456542030358L638.3574999999901,592.0806542030359L639.13999999999,591.8256542030358L643.22999999999,591.8256542030358ZM666.27687499999,592.5806542030359L666.66749999999,592.8056542030358L666.90187499999,593.1806542030358L666.97999999999,593.7056542030358L666.97999999999,594.1756542030358L666.90187499999,594.7006542030358L666.66749999999,595.0756542030358L666.27687499999,595.3006542030357L665.72999999999,595.3756542030358L655.21999999999,595.3756542030358L654.4199999999901,595.4681542030357L653.87999999999,595.7456542030358L653.59499999999,596.2406542030358L653.49999999999,596.9856542030358L653.49999999999,617.9656542030358L653.59499999999,618.7256542030359L653.87999999999,619.2256542030358L654.4199999999901,619.5031542030358L655.21999999999,619.5956542030358L665.74999999999,619.5956542030358L666.29687499999,619.6706542030358L666.68749999999,619.8956542030357L666.92187499999,620.2706542030359L666.99999999999,620.7956542030358L666.99999999999,621.2656542030359L666.92187499999,621.7906542030358L666.68749999999,622.1656542030358L666.29687499999,622.3906542030359L665.74999999999,622.4656542030358L648.14999999999,622.4656542030358L647.61187499999,622.3819042030359L647.22749999999,622.1306542030359L646.99687499999,621.7119042030358L646.91999999999,621.1256542030358L646.91999999999,593.8456542030358L646.99687499999,593.2594042030357L647.22749999999,592.8406542030359L647.61187499999,592.5894042030359L648.14999999999,592.5056542030359L665.72999999999,592.5056542030359ZM665.9768749999901,597.2569042030358L666.3674999999901,597.4706542030358L666.6018749999901,597.8269042030358L666.6799999999901,598.3256542030358L666.6799999999901,598.6556542030359L666.6043749999901,599.1587792030359L666.37749999999,599.5181542030359L665.99937499999,599.7337792030359L665.46999999999,599.8056542030358L664.5699999999899,599.8056542030358L663.79999999999,599.8981542030358L663.26999999999,600.1756542030358L662.97749999999,600.6756542030357L662.87999999999,601.4356542030358L662.87999999999,603.6356542030358L662.9837499999901,604.3487792030357L663.2949999999901,604.8581542030358L663.81374999999,605.1637792030358L664.53999999999,605.2656542030359L665.28999999999,605.2656542030359L666.13999999999,605.6056542030358L666.44999999999,606.4156542030358L666.44999999999,606.7456542030359L666.13999999999,607.5556542030358L665.28999999999,607.8856542030358L664.53999999999,607.8856542030358L663.81374999999,607.9869042030358L663.2949999999901,608.2906542030357L662.9837499999901,608.7969042030359L662.87999999999,609.5056542030359L662.87999999999,613.1056542030358L662.97749999999,613.8581542030358L663.26999999999,614.3556542030358L663.8049999999901,614.6331542030358L664.58999999999,614.7256542030358L665.62999999999,614.7256542030358L666.1681249999899,614.7969042030358L666.55249999999,615.0106542030358L666.7831249999899,615.3669042030358L666.85999999999,615.8656542030358L666.85999999999,616.2056542030358L666.78187499999,616.7044042030357L666.54749999999,617.0606542030357L666.15687499999,617.2744042030357L665.60999999999,617.3456542030358L655.11999999999,617.3456542030358L654.5556249999901,617.2631542030358L654.15249999999,617.0156542030359L653.91062499999,616.603154203036L653.82999999999,616.0256542030359L654.12999999999,615.1356542030358L654.48749999999,614.8281542030358L654.91999999999,614.7256542030358L655.25999999999,614.7256542030358L655.93374999999,614.6244042030357L656.41499999999,614.3206542030357L656.70374999999,613.8144042030357L656.79999999999,613.1056542030358L656.79999999999,609.5056542030359L656.70374999999,608.7969042030359L656.41499999999,608.2906542030357L655.93374999999,607.9869042030358L655.25999999999,607.8856542030358L654.91999999999,607.8856542030358L654.46999999999,607.7756542030359L654.09999999999,607.4456542030358L653.82999999999,606.5656542030358L653.96749999999,605.9006542030359L654.37999999999,605.4456542030358L654.91999999999,605.2656542030359L655.25999999999,605.2656542030359L655.93374999999,605.1637792030358L656.41499999999,604.8581542030358L656.70374999999,604.3487792030357L656.79999999999,603.6356542030358L656.79999999999,601.4356542030358L656.70374999999,600.7225292030358L656.41499999999,600.2131542030357L655.93374999999,599.9075292030358L655.25999999999,599.8056542030358L654.91999999999,599.8056542030358L654.45499999999,599.6956542030359L654.07999999999,599.3656542030358L653.8099999999899,598.4856542030358L653.8918749999899,597.9169042030359L654.1374999999899,597.5106542030358L654.54687499999,597.2669042030358L655.11999999999,597.1856542030358L665.4299999999901,597.1856542030358ZM677.76999999999,592.0356542030358L677.94749999999,592.4706542030358L678.43999999999,592.6156542030358L684.04999999999,592.6156542030358L684.59687499999,592.6987792030358L684.98749999999,592.9481542030359L685.22187499999,593.3637792030358L685.29999999999,593.9456542030358L685.29999999999,604.1956542030358L685.22187499999,604.7819042030358L684.98749999999,605.2006542030358L684.59687499999,605.4519042030358L684.04999999999,605.5356542030358L680.21999999999,605.5356542030358L679.67312499999,605.4519042030358L679.28249999999,605.2006542030358L679.04812499999,604.7819042030358L678.96999999999,604.1956542030358L678.96999999999,596.6356542030358L678.73999999999,595.9381542030358L678.04999999999,595.7056542030358L677.38499999999,595.9306542030358L677.0699999999899,596.6056542030358L675.87999999999,604.4956542030359L675.46249999999,605.4331542030359L674.5699999999899,605.7456542030359L670.61999999999,605.7456542030359L669.8174999999899,605.5156542030359L669.54999999999,604.8256542030358L669.57999999999,604.4456542030358L670.78999999999,596.9156542030358L670.84999999999,596.5556542030358L670.62499999999,595.9731542030358L669.94999999999,595.7056542030358L669.4249999999901,595.4481542030358L669.24999999999,594.8156542030358L669.24999999999,593.7956542030358L669.54999999999,592.9156542030358L670.13999999999,592.6156542030358L670.75999999999,592.6156542030358L671.31749999999,592.4956542030359L671.58999999999,592.1356542030358L671.91999999999,591.8056542030358L677.59999999999,591.8056542030358ZM701.43687499999,592.6487792030358L701.82749999999,592.8981542030359L702.06187499999,593.3137792030359L702.13999999999,593.8956542030359L702.13999999999,604.0756542030358L702.06187499999,604.6575292030359L701.82749999999,605.0731542030359L701.43687499999,605.3225292030359L700.88999999999,605.4056542030359L688.38999999999,605.4056542030359L687.8518749999901,605.3225292030359L687.46749999999,605.0731542030359L687.23687499999,604.6575292030359L687.15999999999,604.0756542030358L687.15999999999,593.8956542030359L687.23687499999,593.3137792030359L687.46749999999,592.8981542030359L687.8518749999901,592.6487792030358L688.38999999999,592.5656542030358L700.88999999999,592.5656542030358ZM694.52999999999,595.1756542030358L693.86062499999,595.2769042030359L693.38249999999,595.5806542030359L693.09562499999,596.0869042030359L692.99999999999,596.7956542030358L692.99999999999,601.1756542030358L693.09562499999,601.8844042030358L693.38249999999,602.3906542030359L693.86062499999,602.6944042030358L694.52999999999,602.7956542030358L694.76999999999,602.7956542030358L695.4393749999899,602.6944042030358L695.9174999999899,602.3906542030359L696.2043749999899,601.8844042030358L696.29999999999,601.1756542030358L696.29999999999,596.7956542030358L696.2043749999899,596.0869042030359L695.9174999999899,595.5806542030359L695.4393749999899,595.2769042030359L694.76999999999,595.1756542030358ZM589.7224999999901,592.5781542030358L590.12999999999,592.7356542030358L590.48499999999,593.0556542030358L590.84999999999,593.5956542030358L594.37999999999,599.8056542030358L594.57999999999,600.2756542030359L594.37999999999,600.6856542030358L593.79999999999,600.9256542030358L587.90999999999,600.9256542030358L587.3474999999901,600.8681542030358L586.95999999999,600.6956542030358L586.6324999999899,600.3756542030359L586.3099999999899,599.8356542030358L584.78999999999,596.6056542030358L584.48499999999,596.1081542030358L584.16999999999,595.8156542030358L583.71749999999,595.6656542030357L583.0599999999899,595.6156542030358L573.00999999999,595.6156542030358L572.3674999999901,595.6656542030357L571.91999999999,595.8156542030358L571.29999999999,596.5856542030358L569.66999999999,599.8356542030358L569.33249999999,600.3806542030358L568.99999999999,600.7156542030358L568.04999999999,600.9256542030358L562.15999999999,600.9256542030358L561.57999999999,600.6856542030358L561.38999999999,600.2556542030359L561.5599999999899,599.7856542030358L564.88999999999,593.5956542030358L565.23499999999,593.0556542030358L565.56999999999,592.7356542030358L566.53999999999,592.5256542030359L589.13999999999,592.5256542030359ZM1143.946,523.9756542030358L1160.826,499.28565420303585L1176.626,499.28565420303585L1152.596,536.7456542030359L1177.716,574.7156542030358L1161.086,574.7156542030358L1143.946,549.5956542030358L1143.946,574.7156542030358L1125.966,574.7156542030358L1125.966,497.9356542030358L1143.946,497.9356542030358ZM1113.99875,497.95252920303574L1114.9650000000001,498.24315420303583L1115.84875,498.72752920303583L1116.65,499.40565420303585L1117.310625,500.2244042030359L1117.7825,501.1206542030358L1118.0656250000002,502.0944042030359L1118.16,503.14565420303586L1118.16,529.6056542030358L1113.79,536.3256542030358L1118.24,543.0456542030358L1118.24,574.7156542030358L1100.69,574.7156542030358L1100.69,538.8456542030358L1086.91,538.8456542030358L1086.91,574.7156542030358L1069.35,574.7156542030358L1069.35,497.8556542030358L1112.95,497.8556542030358ZM1057.4701249999998,497.95252920303574L1058.4345,498.24315420303583L1059.315125,498.72752920303583L1060.112,499.40565420303585L1060.772625,500.2244042030359L1061.2445,501.1206542030358L1061.5276250000002,502.0944042030359L1061.622,503.14565420303586L1061.622,574.7156542030358L1012.902,574.7156542030358L1012.902,497.8556542030358L1056.422,497.8556542030358ZM955.198,545.4856542030358L962.088,525.9056542030359L977.378,525.9056542030359L985.188,545.4856542030358L989.048,497.8556542030358L1005.178,497.8556542030358L997.698,574.7156542030358L978.718,574.7156542030358L969.728,546.8256542030358L961.918,574.7156542030358L941.928,574.7156542030358L934.278,497.8556542030358L950.578,497.8556542030358ZM926.556,503.4856542030358L899.166,503.4856542030358L898.396,503.59565420303574L897.846,503.9256542030358L897.5159999999998,504.4756542030358L897.406,505.2456542030359L897.406,531.2056542030358L926.046,531.2056542030358L926.046,536.7456542030359L897.406,536.7456542030359L897.406,569.2556542030359L926.556,569.2556542030359L926.556,574.7156542030358L878.166,574.7156542030358L878.166,503.2256542030358L878.2635,502.1750292030358L878.556,501.20315420303587L879.0435,500.31002920303587L879.726,499.4956542030359L880.5409999999999,498.8131542030359L881.436,498.3256542030358L882.4110000000001,498.03315420303585L883.466,497.9356542030358L926.556,497.9356542030358ZM834.912,527.3356542030358L847.002,497.9356542030358L870.442,497.9356542030358L870.442,574.7156542030358L852.462,574.7156542030358L852.462,527.2556542030359L842.552,547.3256542030358L827.182,547.3256542030358L817.022,527.2556542030359L817.022,574.7156542030358L799.122,574.7156542030358L799.122,497.9356542030358L822.562,497.9356542030358ZM791.398,574.7156542030358L773.418,574.7156542030358L768.798,547.7456542030359L758.718,547.7456542030359L754.018,574.7156542030358L736.038,574.7156542030358L752.338,497.8556542030358L775.098,497.8556542030358ZM724.07075,497.95252920303574L725.0369999999999,498.24315420303583L725.9207499999999,498.72752920303583L726.722,499.40565420303585L727.382625,500.2244042030359L727.8545,501.1206542030358L728.137625,502.0944042030359L728.232,503.14565420303586L728.232,529.6056542030358L723.862,536.3256542030358L728.312,543.0456542030358L728.312,574.7156542030358L710.762,574.7156542030358L710.762,538.8456542030358L696.982,538.8456542030358L696.982,574.7156542030358L679.422,574.7156542030358L679.422,497.8556542030358L723.022,497.8556542030358ZM671.698,503.39565420303586L643.978,503.39565420303586L643.2079999999999,503.5062792030359L642.6579999999999,503.83815420303586L642.328,504.3912792030358L642.218,505.16565420303584L642.218,531.2056542030358L670.608,531.2056542030358L670.608,536.6656542030358L642.218,536.6656542030358L642.218,574.7156542030358L623.058,574.7156542030358L623.058,503.2256542030358L623.1555000000001,502.1750292030358L623.448,501.20315420303587L623.9355,500.31002920303587L624.618,499.4956542030359L625.433,498.8131542030359L626.328,498.3256542030358L627.3029999999999,498.03315420303585L628.358,497.9356542030358L671.698,497.9356542030358ZM615.336,503.4856542030358L587.946,503.4856542030358L587.1759999999999,503.59565420303574L586.626,503.9256542030358L586.296,504.4756542030358L586.186,505.2456542030359L586.186,531.2056542030358L614.826,531.2056542030358L614.826,536.7456542030359L586.186,536.7456542030359L586.186,569.2556542030359L615.336,569.2556542030359L615.336,574.7156542030358L566.946,574.7156542030358L566.946,503.2256542030358L567.0435,502.1750292030358L567.336,501.20315420303587L567.8235,500.31002920303587L568.506,499.4956542030359L569.321,498.8131542030359L570.216,498.3256542030358L571.191,498.03315420303585L572.246,497.9356542030358L615.336,497.9356542030358ZM559.226,503.3156542030358L529.236,503.3156542030358L529.236,531.8756542030359L554.016,531.8756542030359L555.064125,531.972529203036L556.0285,532.2631542030359L556.909125,532.7475292030358L557.706,533.4256542030358L558.371,534.2444042030359L558.846,535.1406542030358L559.131,536.1144042030357L559.226,537.1656542030358L559.226,574.7156542030358L511.086,574.7156542030358L511.086,569.3356542030358L541.166,569.3356542030358L541.166,539.0956542030358L541.0553750000001,538.3256542030358L540.7235000000001,537.7756542030359L540.1703749999999,537.4456542030357L539.396,537.3356542030358L511.086,537.3356542030358L511.086,497.8556542030358L559.226,497.8556542030358ZM503.364,574.7156542030358L484.374,574.7156542030358L484.374,497.8556542030358L503.364,497.8556542030358ZM472.40675,497.95252920303574L473.373,498.24315420303583L474.25675,498.72752920303583L475.058,499.40565420303585L475.718625,500.2244042030359L476.1905,501.1206542030358L476.47362499999997,502.0944042030359L476.568,503.14565420303586L476.568,529.6056542030358L472.198,536.3256542030358L476.648,543.0456542030358L476.648,574.7156542030358L459.098,574.7156542030358L459.098,538.8456542030358L445.318,538.8456542030358L445.318,574.7156542030358L427.758,574.7156542030358L427.758,497.8556542030358L471.358,497.8556542030358ZM415.87812499999995,498.03315420303585L416.8425,498.3256542030358L417.723125,498.8131542030359L418.52,499.4956542030359L419.18062499999996,500.31002920303587L419.6525,501.20315420303587L419.93562499999996,502.1750292030358L420.03,503.2256542030358L420.03,548.6756542030358L390.3,548.6756542030358L390.3,574.7156542030358L371.73,574.7156542030358L371.73,497.9356542030358L414.83,497.9356542030358ZM359.76275,497.95252920303574L360.729,498.24315420303583L361.61275,498.72752920303583L362.414,499.40565420303585L363.07462499999997,500.2244042030359L363.5465,501.1206542030358L363.82962499999996,502.0944042030359L363.924,503.14565420303586L363.924,529.6056542030358L359.554,536.3256542030358L364.004,543.0456542030358L364.004,574.7156542030358L346.454,574.7156542030358L346.454,538.8456542030358L332.674,538.8456542030358L332.674,574.7156542030358L315.114,574.7156542030358L315.114,497.8556542030358L358.714,497.8556542030358ZM307.392,503.4856542030358L280.002,503.4856542030358L279.23199999999997,503.59565420303574L278.682,503.9256542030358L278.35200000000003,504.4756542030358L278.242,505.2456542030359L278.242,531.2056542030358L306.882,531.2056542030358L306.882,536.7456542030359L278.242,536.7456542030359L278.242,569.2556542030359L307.392,569.2556542030359L307.392,574.7156542030358L259.002,574.7156542030358L259.002,503.2256542030358L259.09950000000003,502.1750292030358L259.39200000000005,501.20315420303587L259.87950000000006,500.31002920303587L260.562,499.4956542030359L261.377,498.8131542030359L262.27200000000005,498.3256542030358L263.247,498.03315420303585L264.302,497.9356542030358L307.392,497.9356542030358ZM251.282,503.3156542030358L237.252,503.3156542030358L237.252,574.7156542030358L216.752,574.7156542030358L216.752,503.3156542030358L202.722,503.3156542030358L202.722,497.8556542030358L251.282,497.8556542030358ZM178.364,546.2356542030358L178.364,497.9356542030358L194.994,497.9356542030358L194.994,574.7156542030358L173.744,574.7156542030358L157.784,528.3456542030358L157.784,574.7156542030358L140.394,574.7156542030358L140.394,497.9356542030358L161.814,497.9356542030358ZM132.672,503.4856542030358L105.282,503.4856542030358L104.512,503.59565420303574L103.962,503.9256542030358L103.632,504.4756542030358L103.522,505.2456542030359L103.522,531.2056542030358L132.162,531.2056542030358L132.162,536.7456542030359L103.522,536.7456542030359L103.522,569.2556542030359L132.672,569.2556542030359L132.672,574.7156542030358L84.282,574.7156542030358L84.282,503.2256542030358L84.37950000000001,502.1750292030358L84.672,501.20315420303587L85.15950000000001,500.31002920303587L85.842,499.4956542030359L86.657,498.8131542030359L87.55199999999999,498.3256542030358L88.52699999999999,498.03315420303585L89.582,497.9356542030358L132.672,497.9356542030358ZM1031.302,503.39565420303586L1031.302,569.2556542030359L1043.312,569.2556542030359L1043.312,505.16565420303584L1043.202,504.3912792030358L1042.872,503.83815420303586L1042.322,503.5062792030359L1041.552,503.39565420303586ZM390.3,503.4856542030358L390.3,543.0456542030358L402.39,543.0456542030358L402.39,505.2456542030359L402.28000000000003,504.4756542030358L401.95000000000005,503.9256542030358L401.4000000000001,503.59565420303574L400.63,503.4856542030358ZM759.648,542.2856542030358L767.798,542.2856542030358L763.758,518.6856542030358ZM1086.91,503.39565420303586L1086.91,533.2156542030358L1100.6,533.2156542030358L1100.6,505.16565420303584L1100.49,504.3912792030358L1100.16,503.83815420303586L1099.61,503.5062792030359L1098.84,503.39565420303586ZM696.982,503.39565420303586L696.982,533.2156542030358L710.672,533.2156542030358L710.672,505.16565420303584L710.5620000000001,504.3912792030358L710.232,503.83815420303586L709.682,503.5062792030359L708.912,503.39565420303586ZM445.318,503.39565420303586L445.318,533.2156542030358L459.008,533.2156542030358L459.008,505.16565420303584L458.89799999999997,504.3912792030358L458.568,503.83815420303586L458.01800000000003,503.5062792030359L457.248,503.39565420303586ZM332.674,503.39565420303586L332.674,533.2156542030358L346.364,533.2156542030358L346.364,505.16565420303584L346.25399999999996,504.3912792030358L345.924,503.83815420303586L345.374,503.5062792030359L344.604,503.39565420303586ZM693.7425379829599,435.2488546491641L703.48895138766,435.2488546491641L708.2514033922599,427.8282898978641L717.99781679696,427.8282898978641L723.86781577936,436.91017511586415L717.99781679696,446.1028150317641L708.2514033922599,446.1028150317641L703.48895138766,438.68225028036414L693.7425379829599,438.68225028036414L688.98008597836,446.1028150317641L678.0153708980599,446.1028150317641L673.25291889346,438.68225028036414L664.83556186206,438.68225028036414L666.93990111996,445.9920603339641L571.13708753936,445.9920603339641L589.74387676656,428.27130868896415L662.06669441756,428.27130868896415L663.9495242798599,435.2488546491641L673.25291889346,435.2488546491641L678.0153708980599,427.8282898978641L688.98008597836,427.8282898978641ZM562.71973050796,441.00809893376413L558.0299612737787,438.4572798005282L553.7762886621099,435.47036404475165L549.9794791787913,432.06811817228134L546.66029932966,428.27130868896415L576.01029424166,428.27130868896415ZM584.6344510603527,402.92773517860223L585.9989835478522,404.14235945213136L587.5192648291024,405.2142139980487L589.1901032776475,406.13421347005163L591.0063072670316,406.8932725218374L592.9626851707991,407.4823058071032L595.0540453624938,407.89222797954636L597.27519621566,408.11395369286413L584.87067006416,419.85395165756415L541.67633792956,419.85395165756415L540.1413470400006,415.5968179616438L539.032069520035,411.13201920737663L538.3588886225818,406.4595553947532L538.13218760056,401.57942652376414L583.4308589930599,401.57942652376414ZM660.806859730335,405.44199660885164L658.07952529746,409.11074597286415L673.80669238236,409.11074597286415L678.56914438696,401.6901812215641L688.42631248946,401.6901812215641L694.29631147186,410.7720664395641L688.42631248946,419.85395165756415L678.56914438696,419.85395165756415L673.91744708016,412.5441416040641L657.74726120406,412.5441416040641L659.74084576416,419.85395165756415L598.60425258906,419.85395165756415L616.98953242066,402.3547094081641L618.09707939846,401.6901812215641L663.28499609316,401.6901812215641ZM672.7683670906474,379.11006721142667L671.81310782226,382.8618825987641L684.32838867156,382.8618825987641L688.98008597836,375.55207254516415L698.83725408086,375.55207254516415L704.7072530632599,384.6339577632641L698.94800877866,393.8265976790641L689.0908406761599,393.8265976790641L684.32838867156,386.4060329277641L670.70556084446,386.4060329277641L667.71518400436,393.71584298126413L626.40368173206,393.71584298126413L629.2556151999725,389.24412205838905L630.3908508522271,386.90962069423284L631.27688843446,384.52320306546414L631.9466082475897,382.13851597883286L632.3152137261226,379.8161284097141L632.4138546288241,377.57680686394536L632.2736807144599,375.44131784736413L673.4744282890599,375.44131784736413ZM584.2649803106897,377.623531502122L582.9601515274475,379.85766142142666L581.8629878025615,382.1540908582251L580.9942556418599,384.52320306546414L580.37299100896,386.9096206941907L580.01130769901,389.24412205835165L579.91958896491,391.51632390501885L580.1082180595599,393.71584298126413L538.7967157872599,393.71584298126413L539.7381307183975,389.1610560350391L541.01180974286,384.52320306546414L542.61775286066,379.9407274447391L544.55596007186,375.44131784736413L585.75670764646,375.44131784736413ZM672.0346172178224,353.1519349189641L673.03140949786,356.94528331796414L685.5466903471599,356.94528331796414L690.30914235176,349.52471856666415L700.1663104542599,349.52471856666415L706.03630943666,358.6066037846641L700.1663104542599,367.68848900276413L690.30914235176,367.68848900276413L685.5466903471599,360.2679242513641L673.58518298676,360.2679242513641L673.9866687661975,363.8397632548516L674.13895647566,367.5777343049641L629.06179447876,367.5777343049641L627.7552351533897,366.0790848006061L626.2513940225913,364.74656734291875L624.5606543392835,363.59056518481975L622.693399356385,362.6214615792266L620.6600123268148,361.84963977905693L618.4708765034914,361.28548303722823L616.1363751393334,360.93937460665813L613.6668914872599,360.82169774026414L611.0890326328567,360.93980724219625L608.5150674982897,361.28894412153295L605.9592730563235,361.8613209385852L603.4359262797225,362.6491502536641L600.9593041412511,363.6446446270805L598.5436836136739,364.84001661914533L596.2033416697554,366.2274787901696L593.9525552822599,367.7992437004641L548.87539328536,367.7992437004641L552.1322736169803,362.91911482953134L555.7421845477725,358.24665101692665L559.6843595719084,353.7818522626407L563.9380321835599,349.52471856666415L670.70556084446,349.52471856666415ZM639.3619813724599,330.4749105482641L654.86763906176,330.4749105482641L659.63009106636,323.0543457969641L681.11650243586,323.0543457969641L685.76819974276,330.4749105482641L693.29951919186,330.4749105482641L698.06197119636,323.0543457969641L707.91913929896,323.0543457969641L713.89989297906,332.2469857127641L708.02989399666,341.3288709308641L698.17272589416,341.3288709308641L693.41027388956,333.90830617946415L685.87895444046,333.90830617946415L681.11650243586,341.3288709308641L659.63009106636,341.3288709308641L654.86763906176,333.90830617946415L642.79537700366,333.90830617946415L649.8836776616599,341.3288709308641L573.46293619276,341.3288709308641L579.3792271777543,337.3001687990678L585.5525036724396,333.7075632897876L591.9386368519195,330.5822041617737L598.4934978912975,327.9552411737766L605.1729579656769,325.8578240845468L611.9328882501616,324.32110265283444L618.7291599198547,323.3762266373901L625.51764414986,323.0543457969641L632.38443541226,323.0543457969641Z" /></svg>